<svg xmlns="http://www.w3.org/2000/svg" xmlns:xlink="http://www.w3.org/1999/xlink" width="1440" height="740" viewBox="0 0 1440 740"><defs><path id="a" d="M17.24 31.359H.321v-5.95h5.16V7.48H.323V2.906L7.538.52h4.494v24.888h5.207z"/></defs><g fill="none" fill-rule="evenodd" opacity=".237"><path fill="#38B5AE" d="M1391.076 381v22.597H1396V409h-16v-5.403h4.884V387.32H1380v-4.16l6.829-2.16h4.247M72.194 588.88c0 .477.239.717.716.717h2.18c.482 0 .72-.24.72-.716v-15.757c0-.48-.238-.726-.72-.726h-2.18c-.477 0-.716.245-.716.726v15.757zM66 571.762c0-1.644.363-2.837 1.154-3.598.756-.762 2.264-1.163 4.478-1.163h4.686c2.274 0 3.777.4 4.533 1.163.751.761 1.149 1.954 1.149 3.598v18.478c0 1.599-.398 2.837-1.15 3.598-.755.762-2.258 1.163-4.532 1.163h-4.686c-2.214 0-3.722-.4-4.478-1.163-.79-.761-1.154-2-1.154-3.598V571.76zM126.192 430.876c0 .48.239.721.711.721h2.189c.472 0 .71-.24.71-.721v-15.757c0-.476-.238-.721-.71-.721h-2.189c-.472 0-.71.245-.71.721v15.757zM120 413.76c0-1.644.358-2.837 1.154-3.598.75-.762 2.258-1.163 4.481-1.163h4.69c2.258 0 3.77.4 4.521 1.163.751.761 1.154 1.954 1.154 3.598v18.473c0 1.604-.403 2.842-1.154 3.603-.75.762-2.263 1.163-4.52 1.163h-4.69c-2.224 0-3.731-.4-4.482-1.163-.796-.761-1.154-2-1.154-3.603V413.76zM1324.076 318v22.607H1329V346h-16v-5.393h4.884v-16.282H1313v-4.16l6.824-2.165h4.252M1345.076 519v22.596H1350V547h-16v-5.404h4.88v-16.28H1334v-4.156l6.824-2.16h4.252M1370.197 630.88c0 .476.239.716.716.716h2.174c.487 0 .72-.24.72-.716v-15.76c0-.48-.233-.727-.72-.727h-2.174c-.477 0-.716.246-.716.727v15.76zM1364 613.752c0-1.64.363-2.832 1.154-3.594.75-.762 2.268-1.158 4.481-1.158h4.685c2.268 0 3.775.396 4.526 1.158.756.762 1.154 1.955 1.154 3.594v18.481c0 1.604-.398 2.847-1.154 3.604-.75.767-2.258 1.163-4.526 1.163h-4.685c-2.213 0-3.73-.396-4.481-1.163-.79-.757-1.154-2-1.154-3.604v-18.481zM64.192 734.88c0 .476.234.716.711.716h2.189c.477 0 .716-.24.716-.716v-15.76c0-.476-.239-.727-.716-.727h-2.189c-.477 0-.71.251-.71.727v15.76M58 717.757c0-1.64.353-2.837 1.154-3.6.746-.761 2.263-1.157 4.486-1.157h4.685c2.253 0 3.77.396 4.526 1.158.746.762 1.149 1.96 1.149 3.599v18.481c0 1.6-.403 2.842-1.149 3.604-.756.762-2.273 1.158-4.526 1.158H63.64c-2.223 0-3.74-.396-4.486-1.158-.8-.762-1.154-2.005-1.154-3.604v-18.481M113.076 668v22.597H118V696h-16v-5.403h4.889V674.32H102v-4.155l6.829-2.165h4.247M150.19 614.88c0 .486.238.727.71.727h2.19c.477 0 .711-.241.711-.727v-15.76c0-.476-.234-.716-.711-.716h-2.19c-.472 0-.71.24-.71.716v15.76zM144 597.767c0-1.644.353-2.847 1.154-3.61.751-.761 2.254-1.157 4.483-1.157h4.686c2.26 0 3.777.396 4.528 1.158.751.762 1.149 1.965 1.149 3.609v18.476c0 1.594-.398 2.837-1.15 3.6-.75.761-2.268 1.157-4.527 1.157h-4.686c-2.229 0-3.732-.396-4.483-1.158-.8-.762-1.154-2.005-1.154-3.599v-18.476zM206.197 443.88c0 .477.239.717.711.717h2.184c.482 0 .72-.24.72-.716v-15.762c0-.476-.238-.726-.72-.726h-2.184c-.472 0-.71.25-.71.726v15.762M200 426.756c0-1.639.358-2.832 1.149-3.593.76-.767 2.273-1.163 4.486-1.163h4.685c2.268 0 3.77.396 4.526 1.163.761.761 1.154 1.954 1.154 3.593v18.478c0 1.599-.393 2.842-1.154 3.603-.756.762-2.258 1.163-4.526 1.163h-4.685c-2.213 0-3.725-.4-4.486-1.163-.79-.761-1.149-2.004-1.149-3.603v-18.478M1254.076 323v22.602H1259V351h-16v-5.398h4.88v-16.277H1243v-4.16l6.829-2.165h4.247M1265.192 565.88c0 .482.234.717.711.717h2.184c.477 0 .716-.235.716-.716v-15.762c0-.476-.239-.721-.716-.721h-2.184c-.477 0-.71.245-.71.721v15.762zM1259 548.757c0-1.639.353-2.832 1.154-3.593.756-.762 2.258-1.163 4.481-1.163h4.685c2.263 0 3.775.4 4.526 1.163.751.761 1.154 1.954 1.154 3.593v18.478c0 1.604-.403 2.842-1.154 3.608-.75.757-2.263 1.158-4.526 1.158h-4.685c-2.223 0-3.725-.4-4.481-1.158-.8-.766-1.154-2.004-1.154-3.608v-18.478zM1301.076 640v22.607H1306V668h-16v-5.393h4.884v-16.281H1290v-4.166l6.829-2.16h4.247M1328.187 715.88c0 .486.239.727.711.727h2.189c.477 0 .71-.241.71-.727v-15.76c0-.48-.233-.722-.71-.722h-2.189c-.472 0-.71.241-.71.722v15.76zM1322 698.762c0-1.64.353-2.842 1.149-3.604.75-.762 2.263-1.158 4.486-1.158h4.685c2.258 0 3.77.396 4.526 1.158.746.762 1.154 1.965 1.154 3.604v18.481c0 1.594-.408 2.837-1.154 3.6-.756.761-2.268 1.157-4.526 1.157h-4.685c-2.223 0-3.735-.396-4.486-1.158-.796-.762-1.149-2.005-1.149-3.599v-18.481zM1365.197 748.88c0 .477.239.717.711.717h2.184c.477 0 .716-.24.716-.716v-15.762c0-.476-.239-.721-.716-.721h-2.184c-.472 0-.71.245-.71.721v15.762M1359 731.756c0-1.639.358-2.832 1.154-3.593.75-.762 2.268-1.163 4.476-1.163h4.69c2.268 0 3.77.4 4.526 1.163.756.761 1.154 1.954 1.154 3.593v18.478c0 1.604-.398 2.842-1.154 3.608-.756.757-2.258 1.158-4.526 1.158h-4.69c-2.208 0-3.725-.4-4.476-1.158-.796-.766-1.154-2.004-1.154-3.608v-18.478M189.08 720v22.597H194V748h-16v-5.403h4.88V726.32H178v-4.16l6.826-2.16h4.254M233.075 654v22.597H238V682h-16v-5.403h4.886v-16.282H222v-4.155l6.826-2.16h4.249M281.081 534v22.596H286V562h-16v-5.404h4.884v-16.28H270v-4.156l6.829-2.16h4.252M1166.076 462v22.596H1171V490h-16v-5.404h4.884v-16.28H1155v-4.156l6.829-2.16h4.247M1192.075 617v22.607H1197V645h-16v-5.393h4.876v-16.282H1181v-4.16l6.82-2.165h4.255M1223.076 694v22.597H1228V722h-16v-5.403h4.88V700.32H1212v-4.155l6.824-2.165h4.252M1252.194 760.88c0 .477.239.717.711.717h2.185c.482 0 .721-.24.721-.716v-15.757c0-.49-.239-.726-.721-.726h-2.185c-.472 0-.711.235-.711.726v15.757zM1246 743.762c0-1.644.358-2.837 1.15-3.598.755-.762 2.268-1.163 4.487-1.163h4.686c2.264 0 3.772.4 4.523 1.163.756.761 1.154 1.954 1.154 3.598v18.473c0 1.604-.398 2.842-1.154 3.603-.751.762-2.259 1.163-4.523 1.163h-4.686c-2.22 0-3.732-.4-4.488-1.163-.79-.761-1.149-2-1.149-3.603V743.76zM344.197 707.88c0 .48.239.722.716.722h2.179c.477 0 .716-.241.716-.722v-15.76c0-.476-.239-.716-.716-.716h-2.179c-.477 0-.716.24-.716.716v15.76zM338 690.762c0-1.64.363-2.842 1.154-3.604.756-.762 2.263-1.158 4.481-1.158h4.685c2.268 0 3.77.396 4.526 1.158.756.762 1.154 1.965 1.154 3.604v18.481c0 1.604-.398 2.837-1.154 3.6-.756.756-2.258 1.157-4.526 1.157h-4.685c-2.218 0-3.725-.401-4.481-1.158-.79-.762-1.154-1.995-1.154-3.599v-18.481zM449.187 384.88c0 .476.239.716.711.716h2.189c.477 0 .71-.24.71-.716v-15.76c0-.486-.233-.727-.71-.727h-2.189c-.472 0-.71.241-.71.727v15.76zM443 367.757c0-1.64.348-2.837 1.149-3.6.75-.761 2.258-1.157 4.486-1.157h4.685c2.258 0 3.77.396 4.526 1.158.746.762 1.154 1.96 1.154 3.599v18.476c0 1.61-.408 2.847-1.154 3.61-.756.756-2.268 1.157-4.526 1.157h-4.685c-2.228 0-3.735-.401-4.486-1.158-.8-.762-1.149-2-1.149-3.609v-18.476zM1051.076 530v22.602H1056V558h-16v-5.398h4.88v-16.277H1040v-4.165l6.829-2.16h4.247M1105.199 742.88c0 .476.239.716.716.716h2.175c.482 0 .721-.24.721-.716v-15.76c0-.486-.239-.727-.721-.727h-2.175c-.477 0-.716.241-.716.727v15.76zM1099 725.757c0-1.64.358-2.837 1.15-3.6.755-.761 2.268-1.157 4.487-1.157h4.686c2.269 0 3.772.396 4.523 1.158.761.762 1.154 1.96 1.154 3.599v18.476c0 1.604-.393 2.847-1.154 3.61-.751.756-2.254 1.157-4.523 1.157h-4.686c-2.22 0-3.732-.401-4.488-1.158-.79-.762-1.149-2.005-1.149-3.609v-18.476zM537.199 723.876c0 .48.234.721.706.721h2.185c.482 0 .72-.24.72-.721v-15.757c0-.476-.238-.726-.72-.726h-2.185c-.472 0-.706.25-.706.726v15.757zM531 706.756c0-1.639.358-2.832 1.15-3.593.755-.767 2.268-1.163 4.487-1.163h4.686c2.269 0 3.767.396 4.528 1.163.756.761 1.149 1.954 1.149 3.593v18.478c0 1.604-.393 2.842-1.15 3.603-.76.762-2.258 1.163-4.527 1.163h-4.686c-2.22 0-3.732-.4-4.488-1.163-.79-.761-1.149-2-1.149-3.603v-18.478zM581.197 672.88c0 .487.239.727.711.727h2.179c.487 0 .72-.24.72-.726v-15.757c0-.48-.233-.716-.72-.716h-2.179c-.472 0-.71.235-.71.716v15.757zM575 655.772c0-1.639.363-2.847 1.149-3.608.76-.762 2.268-1.163 4.486-1.163h4.685c2.268 0 3.77.4 4.526 1.163.756.761 1.154 1.97 1.154 3.608v18.473c0 1.599-.398 2.837-1.154 3.598-.756.762-2.258 1.158-4.526 1.158h-4.685c-2.218 0-3.725-.396-4.486-1.158-.786-.761-1.149-2-1.149-3.598v-18.473zM625.192 617.876c0 .486.239.721.711.721h2.189c.472 0 .71-.235.71-.721v-15.757c0-.48-.238-.721-.71-.721h-2.189c-.472 0-.71.24-.71.721v15.757M619 600.76c0-1.639.358-2.842 1.154-3.603.756-.762 2.258-1.158 4.481-1.158h4.69c2.258 0 3.77.396 4.521 1.158.751.761 1.154 1.964 1.154 3.603v18.478c0 1.599-.403 2.837-1.154 3.598-.75.762-2.263 1.163-4.52 1.163h-4.69c-2.224 0-3.726-.4-4.482-1.163-.796-.761-1.154-2-1.154-3.598V600.76M672.076 544v22.607H677V572h-16v-5.393h4.884v-16.281H661v-4.166l6.829-2.16h4.247M708.199 533.876c0 .48.234.721.711.721h2.18c.482 0 .72-.24.72-.721v-15.757c0-.476-.238-.721-.72-.721h-2.18c-.477 0-.711.245-.711.721v15.757zM702 516.756c0-1.634.358-2.837 1.15-3.593.76-.762 2.268-1.163 4.487-1.163h4.681c2.27 0 3.777.4 4.533 1.163.756.756 1.149 1.96 1.149 3.593v18.478c0 1.604-.393 2.842-1.15 3.608-.755.757-2.263 1.158-4.532 1.158h-4.681c-2.22 0-3.727-.4-4.488-1.158-.79-.766-1.149-2.004-1.149-3.608v-18.478zM782.19 552.88c0 .476.238.716.71.716h2.19c.477 0 .711-.24.711-.716v-15.76c0-.476-.234-.727-.711-.727h-2.19c-.472 0-.71.251-.71.727v15.76zM776 535.757c0-1.64.353-2.837 1.15-3.6.755-.756 2.258-1.157 4.487-1.157h4.681c2.264 0 3.772.401 4.528 1.158.746.762 1.154 1.96 1.154 3.599v18.481c0 1.604-.408 2.842-1.154 3.604-.756.762-2.264 1.158-4.528 1.158h-4.681c-2.229 0-3.732-.396-4.488-1.158-.796-.762-1.149-2-1.149-3.604v-18.481zM817.19 597.88c0 .486.238.722.71.722h2.19c.472 0 .711-.236.711-.722v-15.76c0-.48-.239-.722-.711-.722h-2.19c-.472 0-.71.241-.71.722v15.76zM811 580.762c0-1.64.348-2.842 1.15-3.604.755-.762 2.263-1.158 4.482-1.158h4.686c2.264 0 3.777.396 4.533 1.158.746.762 1.149 1.965 1.149 3.604v18.476c0 1.6-.403 2.837-1.15 3.604-.755.757-2.268 1.158-4.532 1.158h-4.686c-2.22 0-3.727-.401-4.483-1.158-.8-.767-1.149-2.005-1.149-3.604v-18.476zM850.199 653.88c0 .48.239.722.711.722h2.18c.482 0 .72-.241.72-.722v-15.76c0-.48-.238-.727-.72-.727h-2.18c-.472 0-.711.246-.711.727v15.76M844 636.757c0-1.64.363-2.837 1.154-3.6.756-.761 2.264-1.157 4.483-1.157h4.686c2.269 0 3.777.396 4.533 1.158.751.762 1.144 1.96 1.144 3.599v18.481c0 1.6-.393 2.842-1.144 3.604-.756.762-2.264 1.158-4.533 1.158h-4.686c-2.22 0-3.727-.396-4.483-1.158-.79-.762-1.154-2.005-1.154-3.604v-18.481M883.194 703.88c0 .482.239.722.711.722h2.18c.487 0 .726-.24.726-.721v-15.757c0-.48-.239-.721-.726-.721h-2.18c-.472 0-.711.24-.711.721v15.757zM877 686.762c0-1.639.353-2.837 1.15-3.598.75-.762 2.268-1.163 4.482-1.163h4.686c2.27 0 3.772.4 4.528 1.163.756.761 1.154 1.96 1.154 3.598v18.478c0 1.599-.398 2.842-1.154 3.603-.756.762-2.259 1.158-4.528 1.158h-4.686c-2.214 0-3.732-.396-4.483-1.158-.796-.761-1.149-2.004-1.149-3.603V686.76zM916.199 748.88c0 .48.239.722.711.722h2.18c.482 0 .72-.241.72-.722v-15.76c0-.476-.238-.727-.72-.727h-2.18c-.472 0-.711.251-.711.727v15.76zM910 731.757c0-1.64.363-2.837 1.15-3.594.755-.767 2.268-1.163 4.487-1.163h4.686c2.269 0 3.767.396 4.528 1.163.756.757 1.149 1.955 1.149 3.594v18.481c0 1.6-.393 2.842-1.15 3.604-.76.762-2.258 1.158-4.527 1.158h-4.686c-2.22 0-3.732-.396-4.488-1.158-.786-.762-1.149-2.005-1.149-3.604v-18.481z"/><g transform="translate(1405 380)"><mask id="b" fill="#fff"><use xlink:href="#a"/></mask><path fill="#177C80" d="M.322 31.354h16.917V.521H.322z" mask="url(#b)"/></g><path fill="#177C80" d="M54.612 596h-5.267c-2.495 0-4.193-.46-5.043-1.328-.892-.87-1.302-2.286-1.302-4.118v-21.118c0-1.876.41-3.243 1.302-4.112.85-.87 2.548-1.324 5.043-1.324h5.267c2.552 0 4.246.454 5.095 1.324.85.869 1.293 2.236 1.293 4.112v21.118c0 1.832-.444 3.248-1.293 4.118-.85.869-2.543 1.328-5.095 1.328m-3.836-25.836c-.534 0-.801.283-.801.83v18.012c0 .542.267.816.801.816h2.457c.535 0 .806-.274.806-.816v-18.012c0-.547-.271-.83-.806-.83h-2.457M208.255 440h-3.37v-6.56h1.908c.566 0 .847-.295.847-.874v-4.819h.063c.47 0 .702.25.702.723v11.525c-.048 0-.101.005-.15.005m-9.403-.524c-.634-.224-1.128-.519-1.482-.888-.949-.923-1.37-2.43-1.37-4.375v-22.436c0-1.99.421-3.447 1.37-4.37.886-.923 2.683-1.407 5.322-1.407h5.563c2.687 0 4.479.484 5.375 1.407.886.923 1.37 2.38 1.37 4.37v22.436c0 1.247-.199 2.31-.571 3.158v-10.258c0-1.631-.383-2.818-1.124-3.577-.736-.763-2.198-1.157-4.406-1.157h-1.259v-8.945c0-.584-.28-.878-.847-.878h-2.595c-.567 0-.843.294-.843.878v8.975c-1.627.105-2.765.489-3.385 1.127-.77.759-1.118 1.946-1.118 3.577v12.363"/><path fill="#58BDBD" d="M206.197 441h-2.253c-1.636 0-2.954-.183-3.944-.535v-12.629c0-1.666.358-2.879 1.149-3.654.637-.652 1.805-1.044 3.476-1.151v10.376c0 .59.284.891.866.891h.706V441m3.616-.005v-11.772c0-.485-.239-.74-.721-.74h-.065V423h1.293c2.268 0 3.77.403 4.526 1.182.761.775 1.154 1.988 1.154 3.654v10.478c-.219.49-.492.902-.82 1.244-.9.927-2.696 1.422-5.367 1.437"/><path fill="#177C80" d="M1410 351h-19v-6.934h5.798V323.13H1391v-5.354l8.101-2.776h5.051v29.066H1410V351M1347 549h-18v-6.175h5.49V524.22H1329v-4.75l7.68-2.47h4.782v2.247l-6.568 2.115v4.085h4.724v16.008h-4.724v5.312H1347V549"/><path fill="#58BDBD" d="M1346 547h-11v-5.405h4.292v-16.287H1335v-4.157l5.968-2.151v23.989H1346V547"/><path fill="#177C80" d="M1440.322 639h-4.686c-2.217 0-3.73-.413-4.48-1.205-.797-.788-1.156-2.071-1.156-3.734v-19.137c0-1.696.359-2.936 1.155-3.723.75-.788 2.264-1.201 4.481-1.201h4.686c2.268 0 3.773.413 4.527 1.2.755.788 1.151 2.028 1.151 3.724v19.137c0 1.663-.396 2.946-1.15 3.734-.755.792-2.26 1.205-4.528 1.205m-3.414-23.415c-.475 0-.713.258-.713.754v16.318c0 .495.238.743.713.743h2.18c.484 0 .717-.248.717-.743v-16.318c0-.496-.233-.754-.717-.754h-2.18M192.496 741v-.28h-5.104v-5.121h.836c.537 0 .8-.251.8-.748v-16.46c0-.497-.263-.758-.8-.758h-2.461c-.537 0-.805.26-.805.758v.565h-1.982l-4.98 1.467v-3.456c0-1.714.397-2.959 1.295-3.755.841-.802 2.544-1.212 5.047-1.212h5.274c2.54 0 4.237.41 5.089 1.212.846.796 1.295 2.041 1.295 3.755v19.298c0 1.675-.449 2.973-1.295 3.765-.475.444-1.208.772-2.209.97m-11.534-.28h-.485c-.495-.183-.893-.415-1.182-.69-.898-.792-1.295-2.09-1.295-3.765v-11.223h2.962v15.678"/><path fill="#58BDBD" d="M191.02 741h-5.457c-1.693 0-3.033-.168-4-.496h.502v-14.77H179v-4.352l5.153-1.382h2.05v14.975c0 .468.278.705.834.705h1.682v4.824H194v.264c-.822.155-1.816.232-2.98.232"/><path fill="#177C80" d="M209 701h-23v-7.521h7.021v-22.682H186v-5.788l9.818-3.009h6.102v31.479H209V701M207.613 623h-5.27c-2.501 0-4.198-.454-5.041-1.328-.902-.868-1.302-2.285-1.302-4.107v-21.12c0-1.872.4-3.25 1.302-4.117.843-.874 2.54-1.328 5.04-1.328h5.271c2.545 0 4.242.454 5.09 1.328.848.868 1.297 2.245 1.297 4.117v21.12c0 1.822-.449 3.24-1.297 4.107-.848.874-2.545 1.328-5.09 1.328m-3.846-25.827c-.537 0-.8.275-.8.819v18.016c0 .554.263.829.8.829h2.462c.531 0 .8-.275.8-.829v-18.016c0-.544-.269-.819-.8-.819h-2.462M271.324 450h-4.688c-2.215 0-3.73-.4-4.484-1.166-.79-.76-1.152-2-1.152-3.602v-18.474c0-1.641.363-2.832 1.152-3.597.755-.76 2.27-1.161 4.484-1.161h4.688c2.264 0 3.77.4 4.524 1.16.76.766 1.152 1.957 1.152 3.598v18.474c0 1.601-.392 2.842-1.152 3.602-.755.766-2.26 1.166-4.524 1.166m-3.416-22.602c-.472 0-.71.245-.71.72v15.759c0 .48.238.715.71.715h2.184c.482 0 .72-.235.72-.715v-15.759c0-.475-.238-.72-.72-.72h-2.184M1305 355h-23v-7.52h7.015v-22.673H1282v-5.794l9.81-3.013h6.117v31.48H1305V355M1231.255 575h-5.562c-2.647 0-4.432-.485-5.322-1.412-.952-.926-1.371-2.426-1.371-4.376v-22.434c0-1.994.42-3.44 1.37-4.371.89-.922 2.676-1.407 5.323-1.407h5.562c2.69 0 4.48.485 5.374 1.407.89.931 1.371 2.377 1.371 4.371v22.434c0 1.95-.48 3.45-1.37 4.376-.895.927-2.685 1.412-5.375 1.412m-4.06-27.45c-.56 0-.847.3-.847.878v19.14c0 .577.287.868.847.868h2.6c.56 0 .843-.291.843-.869v-19.14c0-.577-.282-.877-.843-.877h-2.6M1192 671h-19v-6.553h5.8V644.68h-5.8v-5.06l8.11-2.62h3.612v1.131h-4.658v5.27h6.084v21.046H1192V671"/><path fill="#58BDBD" d="M1188 643h-7v-5.763h5.36V636h1.64v7"/><path fill="#177C80" d="M1417.323 722h-4.684c-2.225 0-3.736-.4-4.487-1.157-.798-.766-1.152-2.003-1.152-3.598v-18.48c0-1.638.354-2.842 1.152-3.604.751-.761 2.262-1.161 4.487-1.161h4.684c2.258 0 3.77.4 4.525 1.161.746.762 1.152 1.966 1.152 3.603v18.481c0 1.595-.406 2.832-1.152 3.598-.756.757-2.267 1.157-4.525 1.157m-3.419-22.598c-.477 0-.713.243-.713.719v15.763c0 .486.236.724.713.724h2.187c.477 0 .713-.238.713-.724v-15.763c0-.476-.236-.719-.713-.719h-2.187M1430.546 759h-6.147c-2.908 0-4.894-.526-5.885-1.531-1.042-1.006-1.514-2.644-1.514-4.762v-24.419c0-2.169.472-3.751 1.514-4.757.99-1.005 2.977-1.531 5.885-1.531h6.147c2.977 0 4.95.526 5.94 1.531.996 1.006 1.514 2.588 1.514 4.757v24.419c0 2.118-.518 3.756-1.514 4.762-.99 1.005-2.963 1.531-5.94 1.531m-4.477-29.869c-.624 0-.936.321-.936.954v20.83c0 .633.312.95.936.95h2.862c.638 0 .945-.317.945-.95v-20.83c0-.633-.307-.954-.945-.954h-2.862M76 749H58v-5.963h5.49v-2.129c.136.005.277.005.418.005h4.42c.812 0 1.525-.051 2.13-.158v2.282H76V749m-8.836-13.086H65.1c-.45 0-.671-.222-.671-.663v-14.579c0-.44.22-.672.67-.672h2.065c.45 0 .676.232.676.672v14.58c0 .44-.225.662-.676.662m-8.577-10.836H58v-4.586l.587-.181v4.767"/><path fill="#58BDBD" d="M70.026 741H65.93c-.13 0-.26 0-.387-.005V725.03H61v-4.808L67.57 718H72v22.841c-.56.108-1.222.159-1.974.159m-2.991-21.092c-.418 0-.622.234-.622.678v14.704c0 .444.204.669.622.669h1.913c.417 0 .626-.225.626-.67v-14.703c0-.444-.209-.678-.626-.678h-1.913"/><path fill="#177C80" d="M190 686h-19v-6.945h5.803v-20.93H171v-5.343l8.106-2.782h5.046v29.055H190V686M397 567h-21v-7.138h6.406v-21.518H376v-5.488l8.962-2.856h5.579v29.862H397V567M1225 495h-21v-7.139h6.411v-21.514H1204v-5.492l8.964-2.855h5.579v29.861H1225V495M1213 650h-19v-4.003h3.84v-2.931h1.951v-20.934H1194v-5.351l8.102-2.781h5.051v29.066H1213V650"/><path fill="#58BDBD" d="M1195.246 644.378h2.508v-1.756h-2.508z"/><path fill="#177C80" d="M1239 722h-18v-1.52h6.005v-5.009h-.52v-15.928h-4.438v-4.61l6.626-1.933h4.783v23.405H1239V722"/><path fill="#58BDBD" d="M1228 720h-7v-4.147h6.393v-.95h.607V720m-5.78-21.309H1221v-4.379l1.22-.312v4.691"/><path fill="#177C80" d="M278.55 778h-6.154c-2.905 0-4.891-.56-5.884-1.617-1.038-1.062-1.512-2.78-1.512-5.011v-25.734c0-2.284.474-3.96 1.512-5.021.993-1.062 2.979-1.617 5.884-1.617h6.153c2.97 0 4.946.555 5.939 1.617.993 1.062 1.512 2.737 1.512 5.021v25.734c0 2.23-.52 3.95-1.512 5.011-.993 1.057-2.97 1.617-5.939 1.617m-4.481-31.476c-.624 0-.934.336-.934 1.004v21.944c0 .677.31 1.009.934 1.009h2.864c.633 0 .943-.332.943-1.009v-21.944c0-.668-.31-1.004-.943-1.004h-2.864M429.326 717h-4.705v-7.204c.124.051.277.075.452.075h2.863c.628 0 .942-.319.942-.956v-5.35c.3.141.448.427.448.858V717m-12.772-2.974c-.374-.9-.554-2.015-.554-3.312v-24.419c0-2.164.471-3.756 1.515-4.763.992-1.007 2.973-1.532 5.882-1.532h6.15c2.979 0 4.955.525 5.948 1.532.988 1.007 1.505 2.6 1.505 4.763v13.552c-.254-.783-.628-1.424-1.117-1.925-.989-.998-2.942-1.518-5.897-1.518h-1.108v-8.314c0-.633-.314-.951-.942-.951h-2.863c-.623 0-.937.318-.937.95v8.315h-.25c-2.885 0-4.852.52-5.84 1.518-1.03 1.002-1.492 2.571-1.492 4.716v11.388M561.613 391h-5.276c-2.5 0-4.2-.41-5.04-1.2-.9-.788-1.297-2.071-1.297-3.732v-19.14c0-1.694.397-2.94 1.298-3.729.84-.788 2.54-1.199 5.039-1.199h5.276c2.54 0 4.24.41 5.09 1.2.844.788 1.297 2.034 1.297 3.727v19.14c0 1.662-.453 2.945-1.298 3.734-.85.788-2.55 1.199-5.09 1.199m-3.847-23.41c-.538 0-.804.247-.804.747v16.326c0 .495.266.742.804.742h2.465c.533 0 .8-.247.8-.742v-16.326c0-.5-.267-.747-.8-.747h-2.465M1101 559h-19v-6.556h5.792v-19.765H1082v-5.057l8.098-2.622h5.054v27.444H1101V559M998.551 754H992.4c-2.914 0-4.894-.557-5.89-1.618-1.033-1.06-1.509-2.79-1.509-5.022v-25.734c0-2.281.476-3.948 1.509-5.008.996-1.061 2.976-1.618 5.89-1.618h6.152c2.977 0 4.948.557 5.936 1.618.997 1.06 1.513 2.727 1.513 5.008v25.734c0 2.232-.516 3.962-1.513 5.022-.988 1.061-2.959 1.618-5.936 1.618m-4.48-31.488c-.621 0-.934.334-.934 1.013v21.946c0 .668.313 1.002.934 1.002h2.858c.64 0 .947-.334.947-1.002v-21.946c0-.679-.308-1.013-.947-1.013h-2.858"/><path fill="#177C80" d="M429.545 734h-6.15c-2.911 0-4.895-.524-5.891-1.53-1.038-1.01-1.504-2.65-1.504-4.765v-12.94c.242.577.563 1.063.969 1.455 1 1.015 2.998 1.544 5.932 1.544h1.234v8.147c0 .637.307.949.93.949h2.864c.634 0 .95-.312.95-.95v-8.146h.224c3.003 0 4.996-.529 5.997-1.544.997-1.01 1.518-2.654 1.518-4.793V700.47c.252.793.382 1.728.382 2.815v24.419c0 2.116-.517 3.754-1.509 4.765-.996 1.006-2.966 1.53-5.946 1.53m-5.41-23.499c-.326-.127-.49-.425-.49-.887V697h4.783v7.22a1.205 1.205 0 0 0-.499-.094h-2.863c-.624 0-.931.33-.931.959v5.416"/><path fill="#2CB4B2" d="M429.346 719h-.228v-12.824c0-.439-.152-.73-.46-.874V698h1.138c3.035 0 5.041.53 6.056 1.547.503.511.887 1.166 1.148 1.963v11.08c0 2.164-.531 3.826-1.546 4.848-1.02 1.027-3.05 1.562-6.108 1.562m-5.06 0h-1.258c-2.987 0-5.022-.535-6.042-1.562a4.37 4.37 0 0 1-.986-1.47v-11.611c0-2.188.474-3.788 1.532-4.81 1.015-1.017 3.035-1.547 6-1.547h.255v12.757c0 .468.166.769.498.898V719"/><path fill="#177C80" d="M630.548 683h-6.15c-2.912 0-4.9-.552-5.89-1.616-1.032-1.06-1.508-2.787-1.508-5.008v-25.738c0-2.283.476-3.957 1.507-5.022.992-1.06 2.98-1.616 5.89-1.616h6.151c2.98 0 4.944.556 5.94 1.616.992 1.065 1.512 2.74 1.512 5.022v25.738c0 2.22-.52 3.948-1.512 5.008-.996 1.064-2.96 1.616-5.94 1.616m-4.477-31.474c-.623 0-.933.335-.933 1.002v21.953c0 .672.31 1.003.933 1.003h2.858c.637 0 .946-.331.946-1.003v-21.953c0-.667-.31-1.002-.946-1.002h-2.858M651.55 628h-6.15c-2.925 0-4.899-.55-5.89-1.614-1.046-1.06-1.51-2.79-1.51-5.01v-25.737c0-2.284.464-3.96 1.51-5.02.991-1.065 2.965-1.619 5.89-1.619h6.15c2.966 0 4.944.554 5.94 1.619.983 1.06 1.51 2.736 1.51 5.02v25.737c0 2.22-.527 3.95-1.51 5.01-.996 1.065-2.974 1.614-5.94 1.614m-4.488-31.475c-.626 0-.937.333-.937 1.002v21.95c0 .68.311 1.012.937 1.012h2.871c.622 0 .933-.332.933-1.012v-21.95c0-.67-.311-1.002-.933-1.002h-2.87M717 574h-18v-6.163h5.496V549.23H699v-4.76l7.686-2.47h4.78v25.837H717V574M631.608 538h-5.266c-2.495 0-4.193-.414-5.044-1.204-.892-.79-1.298-2.072-1.298-3.732v-19.138c0-1.7.406-2.937 1.298-3.727.851-.785 2.55-1.199 5.044-1.199h5.266c2.555 0 4.248.414 5.1 1.199.846.79 1.292 2.026 1.292 3.727v19.138c0 1.66-.446 2.942-1.293 3.732-.851.79-2.544 1.204-5.1 1.204m-3.832-23.414c-.536 0-.801.256-.801.753v16.317c0 .498.265.748.801.748h2.455c.536 0 .806-.25.806-.748V515.34c0-.497-.27-.753-.806-.753h-2.455M829.26 560h-5.567c-2.642 0-4.432-.486-5.327-1.408-.947-.926-1.366-2.433-1.366-4.376v-22.442c0-1.987.419-3.44 1.366-4.366.895-.922 2.685-1.408 5.327-1.408h5.566c2.685 0 4.475.486 5.375 1.408.89.926 1.366 2.379 1.366 4.366v22.442c0 1.943-.476 3.45-1.366 4.376-.9.922-2.69 1.408-5.375 1.408m-4.065-27.448c-.558 0-.842.298-.842.882v19.132c0 .584.284.872.842.872h2.598c.568 0 .847-.288.847-.872v-19.132c0-.584-.28-.882-.847-.882h-2.598M872.316 604h-4.684c-2.22 0-3.728-.399-4.482-1.159-.801-.764-1.15-2.004-1.15-3.6v-18.478c0-1.638.349-2.844 1.15-3.604.754-.76 2.262-1.159 4.482-1.159h4.684c2.262 0 3.77.399 4.53 1.159.749.76 1.154 1.966 1.154 3.604v18.479c0 1.595-.405 2.835-1.155 3.6-.758.76-2.267 1.158-4.529 1.158m-3.416-22.6c-.476 0-.717.242-.717.717v15.762c0 .484.24.726.717.726h2.186c.476 0 .717-.242.717-.726v-15.762c0-.475-.24-.717-.717-.717H868.9M857.954 658h-4.984c-2.356 0-3.962-.41-4.766-1.198a2.103 2.103 0 0 1-.204-.21c.706.162 1.567.243 2.575.243h4.585c2.22 0 3.695-.377 4.435-1.103.735-.726 1.12-1.91 1.12-3.433v-17.603c0-1.561-.385-2.702-1.12-3.428-.74-.726-2.215-1.103-4.435-1.103h-4.585c-1.008 0-1.87.081-2.575.243.063-.071.131-.143.204-.205.804-.788 2.41-1.203 4.766-1.203h4.984c2.415 0 4.016.415 4.82 1.203.803.788 1.226 2.025 1.226 3.724v19.141c0 1.657-.423 2.941-1.227 3.734-.803.787-2.404 1.198-4.819 1.198m-4.385-6.307h-1.748c-.462 0-.696-.23-.696-.688v-15.01c0-.459.234-.693.696-.693h1.748V651.693"/><path fill="#58BDBD" d="M854.935 660h-5.007c-1.1 0-2.041-.085-2.812-.256-.765-.837-1.116-2.105-1.116-3.699V635.95c0-1.634.35-2.862 1.116-3.694.771-.17 1.712-.256 2.812-.256h5.007c2.424 0 4.035.396 4.842 1.158.803.762 1.223 1.96 1.223 3.599v18.481c0 1.6-.42 2.842-1.223 3.604-.807.762-2.418 1.158-4.842 1.158m-1.738-5.398c.01.496.287.746.83.746h2.53c.563 0 .84-.26.84-.782v-17.132c0-.522-.277-.792-.84-.792h-2.53c-.538 0-.814.255-.83.751h-1.908c-.505 0-.76.246-.76.727v15.76c0 .48.255.722.76.722h1.908"/><path fill="#177C80" d="M792.61 712h-5.273c-2.493 0-4.2-.456-5.048-1.325-.891-.873-1.289-2.29-1.289-4.12v-21.12c0-1.873.398-3.242 1.29-4.11.848-.874 2.554-1.325 5.047-1.325h5.273c2.55 0 4.242.451 5.09 1.325.85.868 1.3 2.237 1.3 4.11v21.12c0 1.83-.45 3.247-1.3 4.12-.848.869-2.54 1.325-5.09 1.325m-3.844-25.838c-.528 0-.796.284-.796.829v18.013c0 .545.268.82.796.82h2.459c.541 0 .81-.275.81-.82v-18.013c0-.545-.269-.83-.81-.83h-2.46M954.546 760h-6.147c-2.913 0-4.894-.526-5.89-1.531-1.037-1.01-1.509-2.648-1.509-4.765v-24.417c0-2.169.472-3.75 1.51-4.756.995-1.01 2.976-1.531 5.89-1.531h6.146c2.977 0 4.95.521 5.94 1.531.996 1.005 1.514 2.587 1.514 4.756v24.417c0 2.117-.518 3.755-1.514 4.765-.99 1.005-2.963 1.531-5.94 1.531m-4.482-29.875c-.614 0-.926.33-.926.958v20.825c0 .637.312.954.926.954h2.867c.633 0 .95-.317.95-.954v-20.825c0-.628-.317-.958-.95-.958h-2.867"/><path fill="#49C2B9" fill-rule="nonzero" d="M0-119h1472v748H0z" opacity=".199"/></g></svg>