<svg id="palette" enable-background="new 0 0 300 300" height="512" viewBox="0 0 300 300" width="512" xmlns="http://www.w3.org/2000/svg"><path d="m249.476 184.009c0-27.857-11.761-54.359-32.336-73.069 43.437-52.252 36.958-74.241 33.893-79.806-.309-.81-.869-1.534-1.622-2.034l-.122-.081c-.748-.496-1.618-.732-2.488-.707-6.362-.695-29.418 1.836-61.23 63.291-14.673-5.538-30.159-7.468-46.059-5.71-45.552 5.031-82.115 41.771-86.94 87.36-3.268 30.871 7.641 60.803 29.93 82.121 10.211 9.766 23.016 15.559 36.057 16.312.961.056 1.901.083 2.826.083 17.916-.001 28.893-10.403 31.02-29.551 2.583-23.246 19.572-28.925 33.37-29.597 5.423-.261 11.34.762 17.581 3.048 8.824 3.233 25.801 6.491 40.329-8.037 5.791-5.792 5.791-17.836 5.791-23.623zm-4.976-147.658c1.875 6.437 3.666 32.531-55.593 93.998l-9.712-6.468c1.956-4.525 3.88-8.806 5.773-12.877l13.469-.367c2.208-.06 3.949-1.899 3.889-4.107s-1.889-3.93-4.107-3.89l-9.381.256c.501-1.023 1-2.031 1.497-3.023l15.554-.424c2.208-.06 3.949-1.899 3.889-4.107s-1.884-3.925-4.107-3.89l-11.15.304c25.916-48.708 44.368-54.773 49.979-55.405zm-96.744 133.021c-1.848-2.296-4.179-3.998-6.787-5.014l6.823-10.246c1.95-1.704 4.875-1.909 7.087-.436 2.697 1.796 3.456 5.414 1.699 8.052-.002.004-.061.09-.062.094-2.059 3.091-2.778 6.804-2.025 10.455.749 3.635 2.869 6.774 5.97 8.839 1.684 1.122 3.55 1.848 5.486 2.169-3.773 4.391-8.826 7.409-14.526 8.607-2.098.44-4.208.618-6.282.542 2.462-2.024 4.315-4.747 5.367-7.949 1.679-5.124.627-10.915-2.75-15.113zm24.388-23.419c7.226 4.812 9.098 14.743 4.174 22.136l-3.193 4.794c-.865 1.299-2.192 2.18-3.738 2.482-1.56.304-3.155-.019-4.492-.908-1.336-.89-2.248-2.238-2.569-3.796-.317-1.542-.017-3.106.842-4.395.002-.004.061-.09.062-.094 4.209-6.32 2.452-14.914-3.916-19.155-1.09-.727-2.256-1.28-3.462-1.664 5.021-2.751 11.294-2.729 16.292.6zm8.258-4.112-8.197-5.46 3.48-5.227 8.197 5.46zm57.625 60.135c-10.814 10.814-23.326 9.331-31.921 6.182-7.247-2.656-14.21-3.838-20.722-3.527-32.241 1.568-39.484 23.669-40.933 36.703-1.771 15.938-10.079 23.253-25.434 22.365-11.145-.645-22.149-5.655-30.988-14.107-20.483-19.592-30.509-47.11-27.504-75.498 4.433-41.878 38.021-75.628 79.864-80.25 14.337-1.585 28.31.084 41.554 4.943-.965 1.962-1.938 3.979-2.919 6.05-.219.323-.383.681-.5 1.062-2.617 5.567-5.283 11.514-7.999 17.899-.15.354-.232.719-.276 1.085l-6.921 10.393c-.021.031-.031.065-.051.097-7.672.099-15.216 3.903-19.828 10.827l-2.011 3.02-10.562 15.859c-.845 1.269-.896 2.907-.13 4.226.765 1.318 2.223 2.085 3.733 1.982 1.6-.112 4.661.145 7.041 3.101 1.672 2.079 2.215 5.063 1.381 7.603-.818 2.494-2.509 4.43-4.76 5.452-2.146.975-4.595 1.016-6.72.115-1.355-.574-2.912-.359-4.06.557-1.148.918-1.701 2.391-1.439 3.837l.041.241c.178 1.098.806 2.072 1.731 2.688 5.516 3.673 11.857 5.574 18.364 5.573 2.323 0 4.669-.243 7.003-.733 8.847-1.858 16.5-7.059 21.551-14.643l4.279-6.425.427-.64c.053-.079.084-.165.131-.246.109-.151.228-.292.331-.448l3.193-4.794c4.766-7.157 5.244-15.92 2.042-23.181l7.426-11.15c7.33-7.52 13.798-14.56 19.516-21.155 18.786 17.185 29.517 41.461 29.517 66.971.002 3.969.002 14.516-3.447 17.966z"/><path d="m112.874 113.181c-9.996 0-18.128 8.132-18.128 18.128s8.132 18.128 18.128 18.128 18.128-8.132 18.128-18.128-8.132-18.128-18.128-18.128zm0 28.256c-5.585 0-10.128-4.543-10.128-10.128 0-5.584 4.543-10.128 10.128-10.128s10.128 4.543 10.128 10.128-4.543 10.128-10.128 10.128z"/><path d="m110.031 175.659c0-9.996-8.132-18.128-18.128-18.128s-18.128 8.132-18.128 18.128 8.132 18.128 18.128 18.128 18.128-8.132 18.128-18.128zm-28.256 0c0-5.584 4.543-10.128 10.128-10.128s10.128 4.543 10.128 10.128-4.543 10.128-10.128 10.128-10.128-4.544-10.128-10.128z"/><path d="m107.282 204.366c-9.996 0-18.128 8.132-18.128 18.128s8.132 18.128 18.128 18.128 18.128-8.132 18.128-18.128-8.132-18.128-18.128-18.128zm0 28.256c-5.585 0-10.128-4.543-10.128-10.128s4.543-10.128 10.128-10.128 10.128 4.543 10.128 10.128-4.543 10.128-10.128 10.128z"/><path d="m197.309 179.387c0 9.996 8.132 18.128 18.128 18.128s18.128-8.132 18.128-18.128-8.132-18.128-18.128-18.128-18.128 8.132-18.128 18.128zm28.256 0c0 5.584-4.543 10.128-10.128 10.128s-10.128-4.543-10.128-10.128 4.543-10.128 10.128-10.128 10.128 4.543 10.128 10.128z"/><path d="m60 48.864c2.209 0 4-1.791 4-4v-11.594c0-2.209-1.791-4-4-4s-4 1.791-4 4v11.593c0 2.21 1.791 4.001 4 4.001z"/><path d="m60 56.321c-2.209 0-4 1.791-4 4v11.593c0 2.209 1.791 4 4 4s4-1.791 4-4v-11.593c0-2.209-1.791-4-4-4z"/><path d="m56 53.27c0-2.209-1.791-4-4-4h-12c-2.209 0-4 1.791-4 4s1.791 4 4 4h12c2.209 0 4-1.791 4-4z"/><path d="m68 57.27h12c2.209 0 4-1.791 4-4s-1.791-4-4-4h-12c-2.209 0-4 1.791-4 4s1.791 4 4 4z"/><path d="m250 233.27c-7.72 0-14 6.128-14 13.661s6.28 13.661 14 13.661 14-6.128 14-13.661c0-7.532-6.281-13.661-14-13.661zm0 19.323c-3.309 0-6-2.54-6-5.661 0-3.122 2.691-5.661 6-5.661s6 2.54 6 5.661c0 3.12-2.692 5.661-6 5.661z"/><path d="m162 68.593c7.72 0 14-6.128 14-13.661s-6.28-13.661-14-13.661-14 6.128-14 13.661 6.28 13.661 14 13.661zm0-19.323c3.309 0 6 2.54 6 5.661s-2.691 5.661-6 5.661-6-2.54-6-5.661 2.691-5.661 6-5.661z"/><path d="m184 240.999c-2.209 0-4 1.73-4 3.864s1.791 3.864 4 3.864 4-1.73 4-3.864-1.791-3.864-4-3.864z"/><path d="m260 148.728c2.209 0 4-1.73 4-3.864s-1.791-3.864-4-3.864-4 1.73-4 3.864 1.791 3.864 4 3.864z"/><path d="m40 104.999c-2.209 0-4 1.73-4 3.864s1.791 3.864 4 3.864 4-1.73 4-3.864-1.791-3.864-4-3.864z"/><path d="m112 44.728c2.209 0 4-1.73 4-3.864s-1.791-3.864-4-3.864-4 1.73-4 3.864 1.791 3.864 4 3.864z"/></svg>