<svg xmlns="http://www.w3.org/2000/svg" width="260" height="347" viewBox="0 0 260 347">
    <g fill="none" fill-rule="evenodd" stroke="#000" stroke-linecap="round" stroke-linejoin="round" stroke-width="2">
        <path fill="#177C80" fill-opacity=".62" d="M258.88 127.507c0 48.364-27.73 90.43-68.346 111.657-16.95 8.864-36.164 14.152-56.629 14.696-1.327.078-2.577.078-3.905.078-1.015 0-1.953 0-2.968-.078-20.543-.389-39.835-5.52-56.863-14.307-41.085-21.15-69.048-63.37-69.048-112.046C1.12 57.606 58.765 1 130 1c71.157 0 128.88 56.606 128.88 126.507zm-128.919 91.95c51.766 0 93.73-41.172 93.73-91.962 0-50.79-41.964-91.962-93.73-91.962-51.766 0-93.73 41.173-93.73 91.962 0 50.79 41.964 91.962 93.73 91.962z"/>
        <path fill="#177C80" fill-opacity=".62" d="M127.032 253.86L92.039 346l-19.37-35.068-36.321 17.184 33.821-88.563c17.028 8.786 36.32 13.918 56.863 14.307z"/>
        <path fill="#177C80" fill-opacity=".631" d="M224.512 328.116l-36.321-17.184L168.898 346l-34.993-92.14c20.465-.544 39.68-5.832 56.63-14.696l33.977 88.952z"/>
        <path fill="#F5A623" d="M129.961 155.927l31.378 17.267-5.992-36.572 25.385-25.9-35.082-5.336-15.689-33.274-15.689 33.274-35.081 5.336 25.385 25.9-5.993 36.572z"/>
    </g>
</svg>
